<svg width="512" height="512" viewBox="0 0 512 512" fill="none" xmlns="http://www.w3.org/2000/svg">
<path d="M254.942 475C194.285 475 142.797 453.24 100.478 409.721C58.1594 366.202 37 314.962 37 256C37 195.635 58.1594 144.394 100.478 102.279C142.797 58.7596 194.285 37 254.942 37C315.599 37 367.087 58.7596 409.406 102.279C453.135 144.394 475 195.635 475 256C475 295.308 465.126 331.808 445.377 365.5C425.628 397.788 398.826 424.462 364.971 445.519C332.527 465.173 295.85 475 254.942 475Z" fill="#1C1917"/>
<path d="M192 351V303.291H266.464C270.926 303.291 274.273 302.035 276.504 299.524C279.014 297.013 280.269 293.944 280.269 290.317C280.269 286.69 279.014 283.621 276.504 281.11C274.273 278.599 270.926 277.344 266.464 277.344H199.948V233.819H266.464C270.648 233.819 273.855 232.564 276.086 230.053C278.596 227.542 279.851 224.473 279.851 220.846C279.851 217.498 278.596 214.568 276.086 212.057C273.855 209.546 270.648 208.291 266.464 208.291H192V161H272.321C284.592 161 295.608 163.651 305.37 168.952C315.41 173.974 323.358 180.949 329.215 189.877C335.072 198.526 338 208.151 338 218.753C338 225.449 336.466 231.866 333.398 238.004C330.33 244.142 325.171 249.862 317.92 255.163C325.171 260.185 330.33 265.765 333.398 271.903C336.466 278.041 338 284.598 338 291.573C338 302.454 335.072 312.498 329.215 321.705C323.358 330.633 315.41 337.747 305.37 343.048C295.33 348.349 284.034 351 271.484 351H192Z" fill="white"/>
</svg>
