<?xml version="1.0" standalone="no"?>
<!DOCTYPE svg PUBLIC "-//W3C//DTD SVG 20010904//EN"
 "http://www.w3.org/TR/2001/REC-SVG-20010904/DTD/svg10.dtd">
<svg version="1.0" xmlns="http://www.w3.org/2000/svg"
 width="512.000000pt" height="512.000000pt" viewBox="0 0 512.000000 512.000000"
 preserveAspectRatio="xMidYMid meet">
<metadata>
Created by potrace 1.14, written by Peter Selinger 2001-2017
</metadata>
<g transform="translate(0.000000,512.000000) scale(0.100000,-0.100000)"
fill="#000000" stroke="none">
<path d="M2369 4746 c-2 -2 -33 -7 -69 -10 -380 -37 -750 -185 -1050 -419
-161 -126 -343 -310 -455 -462 -33 -44 -62 -82 -65 -85 -29 -28 -151 -258
-213 -400 -32 -73 -100 -316 -112 -395 -3 -23 -7 -50 -9 -60 -30 -158 -28
-596 4 -725 5 -19 11 -52 14 -72 3 -21 11 -57 16 -80 6 -24 13 -53 15 -65 15
-67 84 -245 140 -359 58 -119 188 -327 247 -396 13 -14 39 -46 58 -69 38 -48
204 -216 260 -265 257 -222 601 -399 895 -459 75 -15 186 -34 245 -41 81 -11
434 -11 515 -1 364 45 637 143 920 332 61 40 123 84 139 97 424 337 685 716
811 1181 29 108 31 116 46 206 20 125 23 178 24 356 0 159 -8 295 -21 359 -2
12 -7 37 -10 56 -3 19 -14 71 -25 115 -71 288 -193 536 -388 785 -67 85 -291
315 -370 380 -24 19 -55 45 -70 58 -70 61 -247 170 -374 232 -177 85 -360 146
-527 174 -14 2 -41 7 -60 10 -19 4 -51 9 -70 12 -42 6 -455 15 -461 10z"/>
</g>
</svg>
