<svg xmlns="http://www.w3.org/2000/svg" width="2888" height="988" fill="none" color="currentColor">
    <path fill="currentColor" d="M20 776V640h242c5 0 10-1 13-3l8-9 3-12c0-4-1-8-3-11-2-4-5-7-8-9s-8-3-13-3h-78c-34 0-65-6-93-17-28-12-50-30-67-55-16-25-24-58-24-97a159 159 0 0 1 84-143c26-15 55-23 86-23h263v136H215c-7 0-12 2-17 7-4 5-6 10-6 16s2 11 6 16c5 5 10 7 17 7h72c39 0 72 6 100 18 29 11 51 29 66 54s23 57 23 96c0 31-8 59-24 84a175 175 0 0 1-150 84H20Zm491 0V258h192v518H511Zm96-571c-28 0-52-10-72-30a102 102 0 0 1 0-144c20-21 44-31 72-31s52 10 72 31a102 102 0 0 1 0 144 98 98 0 0 1-72 30Zm152 571V474a210 210 0 0 1 117-200c37-19 81-28 131-28a305 305 0 0 1 131 28c17 8 32 17 44 28h3a245 245 0 0 1 103-48 324 324 0 0 1 204 20 208 208 0 0 1 118 200v302h-192l-1-289a71 71 0 0 0-31-60c-10-7-23-10-37-10-15 0-28 3-38 10s-18 15-23 26c-6 10-8 21-8 34v289h-191V487c0-13-3-24-9-34-6-11-14-19-24-26-11-7-24-10-38-10a64 64 0 0 0-60 36c-6 10-8 21-8 34v289H759Zm1190-531c44 0 83 7 117 20a253 253 0 0 1 149 146c14 34 21 72 21 113 0 53-11 99-33 139a234 234 0 0 1-213 125 210 210 0 0 1-95-23c-13-8-25-18-35-30h-6v253h-192V526c0-57 12-106 36-148s58-75 101-98c44-23 94-35 150-35Zm0 168a87 87 0 0 0-80 49c-7 15-11 33-11 54 0 19 4 36 11 51 8 15 19 26 33 35s30 13 47 13c18 0 34-4 47-13 14-9 25-20 32-35 8-15 12-32 12-51 0-21-4-39-12-54a84 84 0 0 0-79-49Zm495 362c-51 0-90-14-119-43s-43-68-43-117V46h191l1 553c0 9 3 16 8 21s13 7 23 7h25v148h-86Zm95-244V417h178c11 0 19-3 24-9 6-6 9-13 9-22s-3-16-9-22c-5-6-13-9-24-9h-159V251h159c10 0 18-3 23-9 6-6 9-13 9-22 0-8-3-15-9-21-5-6-13-9-23-9h-178V77h192a163 163 0 0 1 136 69c14 21 21 44 21 69 0 16-4 31-11 46s-20 28-37 41c17 12 30 25 37 40s11 30 11 47c0 26-7 50-21 72-14 21-33 38-57 51s-51 19-81 19h-190Z" />
</svg>